<svg xmlns="http://www.w3.org/2000/svg" viewBox="0 0 1862 468" fill="none" role="img" aria-label="Tether Zero">
  <title>Tether Zero</title>
  <desc>Tether Zero horizontal logo lockup. Gradient ring with green accent dot and wordmark.</desc>
  <defs><linearGradient id="tzRing" x1="0.12" y1="0.05" x2="0.88" y2="0.95">
    <stop offset="0" stop-color="#4C2DB7"/><stop offset="0.5" stop-color="#343BD2"/><stop offset="1" stop-color="#0A5BFC"/>
  </linearGradient></defs>
  <path d="M 279.12 395.19 A 180.0 180.0 0 1 1 387.94 297.21" stroke="url(#tzRing)" stroke-width="41.0" stroke-linecap="round"/>
  <circle cx="352" cy="358.5" r="40.5" stroke="#06BD8A" stroke-width="33"/>
  <svg x="539" y="143" width="751" height="203" viewBox="0 0 751 203" overflow="visible"><path d="M0 0 C1.1 -0 2.21 -0.01 3.35 -0.01 C4.5 -0 5.66 0.01 6.84 0.02 C8 0.01 9.15 0 10.34 -0.01 C11.44 -0.01 12.55 -0 13.69 0 C14.19 0 14.19 0 16.76 0.01 C19.34 0.27 19.34 0.27 22.34 2.27 C22.7 5.13 22.7 5.13 22.68 8.83 C22.68 9.16 22.68 9.16 22.69 10.87 C22.68 13.1 22.66 15.33 22.64 17.55 C22.63 19.1 22.63 20.64 22.62 22.19 C22.61 26.25 22.58 30.32 22.55 34.39 C22.52 38.54 22.51 42.69 22.49 46.84 C22.46 54.98 22.41 63.12 22.34 71.27 C23.27 70.47 24.21 69.68 25.16 68.87 C37.69 58.23 56.47 55.12 72.34 56.27 C85.53 57.45 98.36 62.17 107.34 72.27 C107.34 72.93 107.34 73.59 107.34 74.27 C108 74.27 108.66 74.27 109.34 74.27 C116.11 82.75 120.23 92.11 121.45 102.88 C121.54 103.61 121.62 104.35 121.71 105.11 C122.66 114.22 122.61 123.33 122.57 132.48 C122.57 134.36 122.57 136.24 122.57 138.12 C122.57 142.02 122.56 145.91 122.55 149.81 C122.53 154.81 122.53 159.81 122.53 164.82 C122.53 168.68 122.52 172.54 122.52 176.4 C122.51 178.24 122.51 180.09 122.51 181.94 C122.51 184.5 122.5 187.06 122.49 189.62 C122.49 190.38 122.49 191.15 122.49 191.94 C122.46 197.15 122.46 197.15 121.34 198.27 C119.28 198.37 117.22 198.4 115.16 198.4 C113.9 198.4 112.65 198.4 111.35 198.4 C110.69 198.4 110.04 198.4 109.36 198.4 C107.35 198.39 105.34 198.4 103.34 198.4 C102.71 198.4 102.71 198.4 99.53 198.4 C98.37 198.4 97.21 198.4 96.01 198.4 C93.34 198.27 93.34 198.27 92.34 197.27 C92.18 195.56 92.09 193.85 92.03 192.14 C91.99 191.05 91.94 189.97 91.9 188.85 C91.86 187.67 91.82 186.48 91.78 185.27 C91.74 184.04 91.69 182.82 91.65 181.56 C91.4 173.73 91.3 165.91 91.34 158.08 C91.39 148.9 91.28 139.74 91.03 130.56 C90.99 129.18 90.95 127.8 90.92 126.42 C90.56 111.25 89.89 100.04 78.97 88.83 C69.86 83.4 59.72 83.14 49.34 84.27 C45.95 85.14 43.27 86.36 40.34 88.27 C39.23 88.95 38.12 89.63 36.97 90.33 C33.35 93 31.04 95.46 28.84 99.39 C28.44 100.09 28.04 100.8 27.62 101.52 C24.45 108.32 22.9 114.47 22.96 121.97 C22.95 122.78 22.95 123.6 22.94 124.44 C22.93 126.2 22.93 127.96 22.93 129.71 C22.94 132.49 22.92 135.27 22.9 138.05 C22.86 144.94 22.85 151.82 22.84 158.71 C22.83 164.56 22.8 170.4 22.76 176.24 C22.75 178.98 22.75 181.72 22.76 184.46 C22.75 186.13 22.74 187.8 22.73 189.47 C22.73 190.23 22.74 191 22.75 191.79 C22.72 193.9 22.72 193.9 22.34 197.27 C18.77 199.65 17.4 199.45 13.18 199.28 C11.98 199.23 10.77 199.18 9.53 199.13 C8.9 199.1 8.9 199.1 5.72 198.95 C4.45 198.9 3.19 198.86 1.88 198.81 C-7.51 198.41 -7.51 198.41 -8.66 197.27 C-8.76 194.75 -8.8 192.27 -8.8 189.76 C-8.8 188.96 -8.8 188.16 -8.81 187.34 C-8.81 184.66 -8.82 181.97 -8.82 179.28 C-8.82 177.37 -8.83 175.45 -8.83 173.53 C-8.85 168.3 -8.85 163.08 -8.86 157.85 C-8.86 154.59 -8.86 151.33 -8.87 148.07 C-8.88 137.88 -8.89 127.7 -8.9 117.51 C-8.9 105.72 -8.92 93.94 -8.95 82.16 C-8.97 73.06 -8.98 63.97 -8.98 54.87 C-8.98 49.44 -8.99 44 -9 38.56 C-9.02 33.45 -9.02 28.33 -9.01 23.22 C-9.01 21.34 -9.02 19.46 -9.03 17.58 C-9.04 15.02 -9.03 12.46 -9.02 9.9 C-9.03 9.15 -9.04 8.4 -9.05 7.62 C-9.03 5.55 -9.03 5.55 -8.66 2.27 C-5.25 -0 -4 0.01 0 0 Z " fill="#FFFFFF" transform="translate(384.65625,-0.265625)"/><path d="M0 0 C1.04 -0 2.08 -0 3.15 -0 C3.75 -0.01 3.75 -0.01 6.77 -0.03 C7.43 -0.03 7.43 -0.03 10.75 -0 C12.14 -0 13.54 -0.01 14.93 -0.02 C18.72 -0.03 22.51 -0.02 26.3 -0 C30.26 0.01 34.23 0 38.19 0 C44.84 -0 51.5 0.01 58.15 0.03 C65.85 0.06 73.55 0.06 81.24 0.05 C88.64 0.04 96.04 0.05 103.44 0.06 C106.6 0.07 109.75 0.07 112.9 0.06 C116.61 0.06 120.32 0.07 124.03 0.09 C126.04 0.1 128.06 0.09 130.07 0.08 C131.26 0.09 132.46 0.1 133.69 0.11 C134.73 0.12 135.77 0.12 136.84 0.12 C139.42 0.5 139.42 0.5 141.26 1.87 C142.96 4.25 142.78 6.1 142.75 9.01 C142.74 10.08 142.74 11.15 142.73 12.25 C142.71 13.36 142.69 14.48 142.67 15.63 C142.67 16.75 142.66 17.87 142.66 19.03 C142.58 27.35 142.58 27.35 141.42 28.5 C138.99 28.75 136.58 28.93 134.14 29.06 C133.39 29.1 132.64 29.14 131.86 29.19 C122.53 29.66 113.2 29.61 103.86 29.56 C102.06 29.56 100.26 29.55 98.45 29.55 C94.11 29.54 89.77 29.52 85.42 29.5 C85.42 30.33 85.43 31.15 85.43 32 C85.47 52.07 85.5 72.14 85.53 92.22 C85.54 101.92 85.55 111.63 85.57 121.34 C85.59 129.8 85.61 138.26 85.61 146.72 C85.61 151.2 85.62 155.68 85.63 160.16 C85.65 164.37 85.65 168.59 85.65 172.8 C85.65 174.35 85.65 175.9 85.66 177.45 C85.67 179.56 85.67 181.67 85.66 183.79 C85.66 184.97 85.67 186.15 85.67 187.37 C85.42 190.5 85.42 190.5 83.42 195.5 C73.85 195.5 64.28 195.5 54.42 195.5 C53.01 192.67 53.3 190.32 53.31 187.16 C53.31 186.5 53.31 185.85 53.31 185.17 C53.31 182.95 53.32 180.74 53.32 178.53 C53.33 176.94 53.33 175.36 53.33 173.78 C53.33 170.36 53.34 166.95 53.35 163.53 C53.36 158.14 53.37 152.75 53.37 147.35 C53.38 134.93 53.4 122.5 53.43 110.08 C53.45 98.69 53.47 87.31 53.47 75.92 C53.48 70.55 53.49 65.19 53.5 59.82 C53.51 56.49 53.51 53.15 53.52 49.82 C53.52 48.27 53.52 46.72 53.53 45.17 C53.53 43.06 53.54 40.95 53.54 38.84 C53.54 37.66 53.54 36.47 53.54 35.26 C53.42 32.5 53.42 32.5 52.42 30.5 C52.09 30.5 52.09 30.5 50.4 30.48 C43.46 30.39 36.51 30.29 29.57 30.18 C26.98 30.14 24.39 30.11 21.79 30.08 C18.07 30.03 14.35 29.98 10.62 29.91 C9.46 29.9 8.3 29.89 7.11 29.88 C6.03 29.86 4.95 29.84 3.83 29.82 C2.88 29.81 1.93 29.79 0.95 29.78 C-1.66 29.49 -3.33 28.83 -5.58 27.5 C-5.67 23.75 -5.72 20 -5.77 16.25 C-5.79 15.19 -5.82 14.12 -5.84 13.03 C-5.85 12 -5.86 10.98 -5.87 9.92 C-5.89 8.98 -5.9 8.04 -5.92 7.07 C-5.39 3.06 -4.1 0.8 0 0 Z " fill="#FFFFFF" transform="translate(5.57843017578125,2.4994287490844727)"/><path d="M0 0 C1.55 3.11 1.24 6.43 1.32 9.85 C1.34 10.63 1.36 11.4 1.38 12.2 C1.44 14.67 1.5 17.15 1.56 19.62 C1.61 21.3 1.65 22.98 1.69 24.66 C1.8 28.77 1.9 32.89 2 37 C3.08 37.01 4.16 37.03 5.27 37.04 C9.27 37.1 13.27 37.18 17.27 37.26 C19 37.3 20.74 37.32 22.47 37.35 C24.96 37.38 27.44 37.43 29.93 37.49 C30.32 37.49 30.32 37.49 32.28 37.51 C34.47 37.57 34.47 37.57 38 38 C40.16 41.24 40.25 42.12 40.23 45.85 C40.23 46.78 40.23 47.72 40.22 48.68 C40.21 49.65 40.2 50.62 40.19 51.62 C40.19 52.11 40.19 52.11 40.19 54.59 C40.14 61.86 40.14 61.86 39 63 C36.43 63.22 33.89 63.38 31.32 63.5 C30.55 63.54 29.77 63.58 28.98 63.62 C26.51 63.75 24.04 63.88 21.56 64 C18.31 64.16 15.06 64.33 11.82 64.5 C11.06 64.54 10.31 64.57 9.54 64.61 C4.23 64.89 4.23 64.89 2 66 C1.95 75.71 1.92 85.42 1.9 95.13 C1.89 99.64 1.87 104.15 1.85 108.65 C1.83 113.01 1.82 117.36 1.81 121.71 C1.81 123.37 1.8 125.03 1.79 126.69 C1.77 129.01 1.77 131.34 1.77 133.66 C1.77 134.35 1.76 135.03 1.75 135.74 C1.77 139.42 2.24 141.8 4 145 C4 146.32 4 147.64 4 149 C4.66 149 5.32 149 6 149 C7.02 149.98 8.02 150.98 9 152 C12.19 154.13 13.04 154.26 16.71 154.27 C17.17 154.27 17.17 154.27 19.48 154.27 C20.44 154.27 21.39 154.26 22.38 154.25 C23.32 154.26 24.27 154.27 25.24 154.27 C33.8 154.25 33.8 154.25 38 152 C40.88 158.41 42.49 164.01 43 171 C43.32 173 43.64 175 44 177 C31.99 184 15.27 185.46 1.77 182.51 C-2.01 181.38 -5.52 179.83 -9 178 C-9.66 177.67 -10.32 177.34 -11 177 C-11 176.34 -11 175.68 -11 175 C-11.59 174.91 -12.18 174.81 -12.79 174.71 C-18.38 172.91 -22.09 166.26 -24.88 161.38 C-29.51 151.19 -28.14 138.53 -28.06 127.56 C-28.06 126.23 -28.05 124.89 -28.05 123.55 C-28.04 118.66 -28.01 113.78 -27.99 108.89 C-27.97 104.73 -27.95 100.57 -27.94 96.42 C-27.94 94.51 -27.93 92.59 -27.91 90.68 C-27.89 82.4 -28.3 74.25 -29 66 C-29.69 65.94 -30.38 65.89 -31.08 65.83 C-33.85 65.61 -36.61 65.37 -39.38 65.12 C-40.36 65.05 -41.34 64.97 -42.36 64.89 C-42.83 64.84 -42.83 64.84 -45.21 64.63 C-46.08 64.56 -46.95 64.49 -47.85 64.41 C-50 64 -50 64 -52 62 C-52.45 58.54 -52.32 55.05 -52.31 51.56 C-52.33 50.6 -52.34 49.63 -52.36 48.63 C-52.36 47.7 -52.36 46.77 -52.36 45.82 C-52.37 44.97 -52.37 44.11 -52.37 43.24 C-52 41 -52 41 -50.77 39.23 C-48.52 37.66 -47.07 37.58 -44.33 37.49 C-43.44 37.45 -42.55 37.42 -41.63 37.38 C-41.16 37.37 -41.16 37.37 -38.81 37.31 C-37.87 37.28 -36.93 37.24 -35.96 37.21 C-33.64 37.13 -31.32 37.06 -29 37 C-28.17 28.66 -27.9 20.47 -28.12 12.09 C-28.23 5.16 -28.23 5.16 -26 2 C-23.92 1.36 -23.92 1.36 -21.39 1.17 C-20.47 1.09 -19.55 1.02 -18.6 0.94 C-17.64 0.88 -16.68 0.81 -15.69 0.75 C-14.74 0.67 -13.79 0.6 -12.81 0.52 C-8.53 0.18 -4.29 -0.04 0 0 Z " fill="#FFFFFF" transform="translate(316,20)"/><path d="M0 0 C6.48 6.01 11.85 14.02 14.91 22.29 C15.24 23.02 15.57 23.75 15.91 24.5 C21.39 37.01 21.18 49.89 20.91 63.29 C18.02 64.73 15.09 64.63 11.91 64.79 C11.12 64.83 10.34 64.86 9.53 64.91 C6.66 65.04 3.78 65.17 0.91 65.29 C0.36 65.31 0.36 65.31 -2.45 65.43 C-29.66 66.51 -56.87 66.39 -84.09 66.29 C-84.23 74.91 -80.95 81.34 -76.09 88.29 C-76.09 88.95 -76.09 89.61 -76.09 90.29 C-75.43 90.29 -74.77 90.29 -74.09 90.29 C-74.09 90.95 -74.09 91.61 -74.09 92.29 C-73.54 92.55 -72.99 92.82 -72.42 93.09 C-70.79 93.92 -69.2 94.82 -67.64 95.76 C-56.3 102.2 -42.81 102.66 -30.09 100.29 C-22.67 98.02 -15.66 93.69 -10.96 87.47 C-9.09 85.29 -9.09 85.29 -6.43 84.35 C-1.7 84.26 0.54 86.27 4.16 89.1 C4.78 89.56 5.41 90.03 6.05 90.51 C8.47 92.32 10.77 94.14 12.91 96.29 C12.35 103.18 7.33 108.11 2.4 112.54 C-3.36 117.21 -8.78 120.99 -15.84 123.41 C-20.99 125.19 -20.99 125.19 -22.09 126.29 C-39.58 130.91 -58.4 131.01 -75.09 123.29 C-75.48 123.11 -75.48 123.11 -77.47 122.2 C-83.26 119.42 -89.11 116.38 -94.09 112.29 C-94.09 111.63 -94.09 110.97 -94.09 110.29 C-94.58 110.12 -94.58 110.12 -97.09 109.29 C-97.09 108.63 -97.09 107.97 -97.09 107.29 C-97.75 107.29 -98.41 107.29 -99.09 107.29 C-101.8 105.05 -103.47 102.37 -105.09 99.29 C-105.09 98.3 -105.09 97.31 -105.09 96.29 C-105.75 96.29 -106.41 96.29 -107.09 96.29 C-108.08 94.1 -109.06 91.91 -110.03 89.72 C-110.31 89.11 -110.58 88.5 -110.87 87.88 C-112.72 83.67 -113.47 79.87 -114.09 75.29 C-114.75 74.3 -115.41 73.31 -116.09 72.29 C-116.35 69.16 -116.35 69.16 -116.36 65.35 C-116.36 64.68 -116.36 64 -116.36 63.31 C-116.36 61.88 -116.36 60.46 -116.35 59.03 C-116.34 56.86 -116.35 54.68 -116.36 52.51 C-116.36 51.12 -116.36 49.74 -116.36 48.35 C-116.35 47.09 -116.35 45.83 -116.35 44.54 C-116.1 41.44 -115.6 39.92 -114.09 37.29 C-113.99 36.25 -113.88 35.22 -113.78 34.16 C-112.85 28.94 -110.6 24.91 -108.09 20.29 C-107.61 19.35 -107.13 18.41 -106.64 17.45 C-103.66 11.74 -100.6 6.9 -96.09 2.29 C-95.43 2.29 -94.77 2.29 -94.09 2.29 C-94.09 1.63 -94.09 0.97 -94.09 0.29 C-92.08 -1.55 -92.08 -1.55 -89.4 -3.65 C-88.53 -4.34 -87.66 -5.03 -86.77 -5.74 C-60.19 -25.34 -24.26 -19.91 0 0 Z M-74.09 18.29 C-74.09 18.95 -74.09 19.61 -74.09 20.29 C-74.75 20.29 -75.41 20.29 -76.09 20.29 C-81.29 26.15 -83.48 32.74 -85.09 40.29 C-81.93 43.44 -72.96 42.41 -68.68 42.42 C-67.78 42.42 -66.88 42.42 -65.95 42.42 C-64.99 42.42 -64.02 42.42 -63.03 42.42 C-61 42.42 -58.97 42.42 -56.93 42.42 C-53.89 42.41 -50.85 42.42 -47.81 42.42 C-35.21 42.43 -22.67 42.05 -10.09 41.29 C-8.47 36.44 -10.95 32.74 -13.09 28.29 C-17.91 19.52 -23.85 12.9 -33.55 9.87 C-38.05 8.83 -42.48 8.81 -47.09 8.85 C-48.02 8.83 -48.96 8.81 -49.92 8.79 C-59.55 8.79 -66.68 12.3 -74.09 18.29 Z " fill="#FFFFFF" transform="translate(241.08984375,73.71484375)"/><path d="M0 0 C11.66 9.5 19.74 23.24 22.16 38.14 C22.52 40.24 22.52 40.24 23.52 43.24 C23.75 46.75 23.7 50.27 23.7 53.8 C23.72 54.77 23.73 55.74 23.74 56.74 C23.74 57.67 23.75 58.6 23.75 59.55 C23.75 60.4 23.76 61.25 23.76 62.13 C23.52 64.24 23.52 64.24 21.52 66.24 C18.53 66.64 18.53 66.64 14.65 66.84 C14.29 66.86 14.29 66.86 12.5 66.95 C3.5 67.39 -5.52 67.49 -14.53 67.59 C-16.41 67.61 -18.29 67.63 -20.16 67.66 C-24.05 67.71 -27.95 67.75 -31.84 67.79 C-36.83 67.85 -41.83 67.91 -46.82 67.98 C-50.67 68.03 -54.53 68.07 -58.39 68.12 C-60.23 68.14 -62.07 68.16 -63.91 68.19 C-66.47 68.22 -69.03 68.25 -71.59 68.27 C-71.97 68.28 -71.97 68.28 -73.89 68.31 C-77.04 68.33 -79.47 68.24 -82.48 67.24 C-82.07 72.27 -81.54 76.58 -79.48 81.24 C-79.48 82.23 -79.48 83.22 -79.48 84.24 C-78.82 84.24 -78.16 84.24 -77.48 84.24 C-76.93 85.31 -76.37 86.38 -75.8 87.49 C-73.87 90.9 -71.63 92.87 -68.48 95.24 C-68.48 95.9 -68.48 96.56 -68.48 97.24 C-68.18 97.33 -68.18 97.33 -66.62 97.82 C-65.81 98.08 -65 98.34 -64.17 98.61 C-63.37 98.87 -62.57 99.12 -61.74 99.38 C-59.48 100.24 -59.48 100.24 -56.48 102.24 C-49.64 103.59 -42.43 103.46 -35.48 103.24 C-34.78 103.22 -34.08 103.2 -33.36 103.19 C-28.14 102.82 -24.15 100.79 -19.58 98.29 C-17.48 97.24 -17.48 97.24 -15.48 97.24 C-15.48 96.58 -15.48 95.92 -15.48 95.24 C-13.84 93.58 -13.84 93.58 -11.67 91.74 C-10.96 91.13 -10.26 90.52 -9.53 89.89 C-5 86.22 -5 86.22 -1.8 86.3 C2.49 87.51 5.99 89.53 9.52 92.24 C9.85 92.9 10.18 93.56 10.52 94.24 C10.85 94.36 10.85 94.36 12.52 94.99 C14.52 96.24 14.52 96.24 15.33 99.24 C15.52 102.24 15.52 102.24 14.52 104.24 C13.86 104.24 13.2 104.24 12.52 104.24 C12.29 104.79 12.06 105.35 11.83 105.92 C9.4 110.2 6.08 113.38 1.52 115.24 C1.52 115.9 1.52 116.56 1.52 117.24 C-6.76 123.84 -15.31 126.88 -25.48 129.24 C-26.23 129.44 -26.97 129.65 -27.73 129.87 C-42.11 133.73 -59.02 131.3 -72.48 125.24 C-73.45 124.81 -74.41 124.38 -75.4 123.94 C-78.11 122.72 -80.8 121.48 -83.48 120.24 C-83.48 119.58 -83.48 118.92 -83.48 118.24 C-84.14 118.05 -84.8 117.86 -85.48 117.67 C-91.95 114.57 -97 109.47 -100.48 103.24 C-100.48 102.58 -100.48 101.92 -100.48 101.24 C-101.14 101.24 -101.8 101.24 -102.48 101.24 C-108.49 90.49 -113.84 80.78 -113.71 68.15 C-113.71 67.41 -113.71 66.67 -113.71 65.9 C-113.71 64.35 -113.7 62.79 -113.69 61.24 C-113.67 58.85 -113.67 56.46 -113.67 54.07 C-113.66 52.55 -113.66 51.04 -113.65 49.52 C-113.65 48.81 -113.65 48.09 -113.65 47.35 C-113.6 42.35 -113.6 42.35 -112.48 41.24 C-112.16 39.87 -111.87 38.49 -111.61 37.11 C-110.7 32.88 -109.34 29.17 -107.48 25.24 C-107.07 24.33 -106.66 23.42 -106.23 22.49 C-98.94 8.93 -98.94 8.93 -94.48 5.24 C-93.82 5.24 -93.16 5.24 -92.48 5.24 C-92.15 4.25 -91.82 3.26 -91.48 2.24 C-90.82 2.24 -90.16 2.24 -89.48 2.24 C-89.15 1.25 -88.82 0.26 -88.48 -0.76 C-62.92 -22.26 -25.18 -19.94 0 0 Z M-74.48 24.24 C-78.63 29.99 -82.48 36.01 -82.48 43.24 C-65.11 44.16 -47.75 44.35 -30.36 44.36 C-29.82 44.36 -29.82 44.36 -27.11 44.37 C-24.04 44.37 -20.98 44.37 -17.91 44.37 C-17.44 44.37 -17.44 44.37 -15.07 44.37 C-14.64 44.37 -14.64 44.37 -12.48 44.37 C-12.11 44.36 -12.11 44.36 -10.21 44.36 C-8.48 44.24 -8.48 44.24 -7.48 43.24 C-6.77 34.48 -11.83 26.87 -17.23 20.3 C-21.6 15.19 -27.77 11.82 -34.4 10.77 C-37.46 10.6 -40.48 10.6 -43.55 10.67 C-44.57 10.66 -45.59 10.65 -46.65 10.64 C-58.64 10.76 -66.45 15.48 -74.48 24.24 Z " fill="#FFFFFF" transform="translate(634.48291015625,71.76416015625)"/><path d="M0 0 C0.39 2.49 0.39 2.49 0.4 5.59 C0.4 6.71 0.41 7.82 0.41 8.96 C0.4 10.13 0.39 11.3 0.38 12.5 C0.39 13.67 0.4 14.83 0.41 16.04 C0.41 17.15 0.4 18.26 0.4 19.41 C0.4 20.43 0.39 21.45 0.39 22.51 C0.32 22.92 0.32 22.92 0 25 C-3.56 27.37 -4.82 27.13 -9 26.94 C-18.13 26.81 -27.32 28.81 -35 34 C-37.38 36.75 -37.38 36.75 -39 39 C-39.66 39 -40.32 39 -41 39 C-41.06 39.29 -41.06 39.29 -41.38 40.76 C-42.18 43.66 -43.54 46.08 -44.96 48.71 C-47.56 54.45 -48.3 59.96 -48.29 66.2 C-48.29 66.59 -48.29 66.59 -48.31 68.59 C-48.32 70.28 -48.33 71.98 -48.34 73.68 C-48.34 76.37 -48.36 79.05 -48.39 81.74 C-48.44 88.4 -48.48 95.06 -48.52 101.72 C-48.55 107.37 -48.59 113.01 -48.64 118.66 C-48.66 121.31 -48.66 123.95 -48.67 126.6 C-48.69 128.22 -48.7 129.83 -48.71 131.45 C-48.71 132.19 -48.71 132.93 -48.71 133.69 C-48.77 138.77 -48.77 138.77 -51 141 C-53.6 141.15 -53.6 141.15 -56.85 141.01 C-58.01 140.96 -59.17 140.92 -60.37 140.87 C-60.98 140.84 -60.98 140.84 -64.06 140.69 C-65.29 140.64 -66.51 140.59 -67.77 140.54 C-76.86 140.14 -76.86 140.14 -78 139 C-78.1 137.25 -78.14 135.49 -78.14 133.73 C-78.15 132.59 -78.15 131.44 -78.16 130.27 C-78.16 129 -78.16 127.74 -78.16 126.43 C-78.17 125.1 -78.17 123.76 -78.18 122.42 C-78.19 118.78 -78.2 115.14 -78.2 111.5 C-78.2 109.23 -78.21 106.96 -78.21 104.69 C-78.23 97.58 -78.24 90.48 -78.24 83.38 C-78.24 75.17 -78.26 66.96 -78.29 58.75 C-78.31 52.41 -78.32 46.07 -78.32 39.74 C-78.32 35.95 -78.33 32.16 -78.35 28.37 C-78.36 24.8 -78.37 21.24 -78.36 17.68 C-78.36 15.74 -78.37 13.81 -78.38 11.87 C-78.38 10.72 -78.37 9.58 -78.37 8.4 C-78.37 7.4 -78.37 6.4 -78.37 5.37 C-78.25 4.59 -78.13 3.8 -78 3 C-74.5 0.66 -73.34 0.82 -69.24 1.02 C-68.68 1.05 -68.68 1.05 -65.85 1.18 C-64.68 1.24 -63.52 1.31 -62.31 1.38 C-61.13 1.43 -59.95 1.49 -58.74 1.55 C-55.83 1.69 -52.91 1.84 -50 2 C-48.65 4.7 -48.66 7.12 -48.44 10.12 C-48.4 10.67 -48.4 10.67 -48.18 13.45 C-48.12 14.29 -48.06 15.13 -48 16 C-47.59 15.48 -47.17 14.96 -46.75 14.43 C-37.59 3.37 -13.83 -9.22 0 0 Z " fill="#FFFFFF" transform="translate(751,58)"/></svg>
  <svg x="1349" y="146" width="486" height="198" viewBox="0 0 486 198" overflow="visible"><path d="M0 0 C1.12 -0.01 2.23 -0.01 3.38 -0.02 C7.05 -0.04 10.71 -0.05 14.38 -0.06 C15.64 -0.07 16.89 -0.07 18.18 -0.07 C24.13 -0.09 30.08 -0.11 36.03 -0.12 C42.89 -0.13 49.74 -0.15 56.6 -0.19 C62.55 -0.23 68.5 -0.24 74.46 -0.24 C76.98 -0.25 79.51 -0.26 82.04 -0.28 C85.57 -0.3 89.09 -0.3 92.62 -0.29 C93.66 -0.31 94.71 -0.32 95.79 -0.33 C102.83 -0.28 102.83 -0.28 106.14 2.04 C107.88 4.8 107.92 6.5 107.8 9.74 C107.76 10.79 107.72 11.85 107.68 12.93 C107.61 14 107.55 15.07 107.49 16.18 C107.45 17.19 107.42 18.19 107.39 19.23 C107.09 24.9 106.56 27.99 102.49 32.18 C101.06 34.47 99.78 36.81 98.49 39.18 C97.83 39.18 97.17 39.18 96.49 39.18 C96.4 39.73 96.32 40.29 96.24 40.86 C95.25 43.89 93.49 45.71 91.49 48.18 C90.8 49.33 90.13 50.5 89.49 51.68 C87.78 54.79 85.71 57.41 83.49 60.18 C83.16 61.17 82.83 62.16 82.49 63.18 C81.83 63.18 81.17 63.18 80.49 63.18 C80.34 63.47 80.34 63.47 79.63 64.93 C77.78 68.55 75.62 71.97 73.49 75.43 C73.03 76.17 72.58 76.92 72.12 77.68 C71.9 78.04 71.9 78.04 70.8 79.82 C70.4 80.46 70.01 81.11 69.6 81.77 C69.23 82.24 68.86 82.7 68.49 83.18 C67.83 83.18 67.17 83.18 66.49 83.18 C66.39 83.73 66.29 84.28 66.2 84.85 C65.3 87.8 63.85 89.88 62.11 92.43 C61.39 93.48 60.68 94.53 59.94 95.62 C58.2 98.15 56.44 100.68 54.68 103.2 C49.94 110.04 45.32 116.77 41.49 124.18 C40.83 124.18 40.17 124.18 39.49 124.18 C39.16 125.83 38.83 127.48 38.49 129.18 C37.83 129.18 37.17 129.18 36.49 129.18 C36.26 129.85 36.03 130.52 35.8 131.2 C34.11 135.03 31.85 138.3 29.49 141.74 C28.59 143.05 27.69 144.37 26.8 145.68 C26.6 145.97 26.6 145.97 25.6 147.43 C24.42 149.29 23.44 151.19 22.49 153.18 C21.83 153.18 21.17 153.18 20.49 153.18 C20.16 154.5 19.83 155.82 19.49 157.18 C18.83 157.18 18.17 157.18 17.49 157.18 C17.38 157.73 17.28 158.29 17.17 158.86 C16.35 161.62 15.03 163.76 13.49 166.18 C18.78 167.93 23.4 168.48 28.96 168.48 C29.78 168.49 30.59 168.5 31.44 168.51 C34.11 168.53 36.79 168.54 39.47 168.56 C41.34 168.57 43.21 168.59 45.08 168.61 C49.98 168.65 54.89 168.69 59.79 168.72 C67.65 168.77 75.52 168.84 83.38 168.91 C86.13 168.93 88.88 168.95 91.63 168.96 C93.31 168.98 94.98 168.99 96.66 169 C97.04 169 97.04 169 98.98 169.01 C104.26 169.06 104.26 169.06 106.49 170.18 C106.49 178.1 106.49 186.02 106.49 194.18 C103.47 195.18 101.46 195.3 98.31 195.3 C97.24 195.31 96.17 195.31 95.06 195.31 C94.48 195.31 94.48 195.31 91.5 195.31 C90.26 195.31 89.03 195.31 87.75 195.31 C84.36 195.32 80.96 195.31 77.57 195.31 C74.02 195.31 70.47 195.31 66.92 195.31 C60.97 195.31 55.01 195.31 49.05 195.31 C42.16 195.3 35.26 195.3 28.37 195.31 C22.45 195.31 16.54 195.31 10.62 195.31 C7.09 195.31 3.55 195.31 0.02 195.31 C-3.92 195.32 -7.85 195.31 -11.79 195.31 C-12.38 195.31 -12.38 195.31 -15.36 195.31 C-16.43 195.31 -17.5 195.31 -18.59 195.3 C-19.53 195.3 -20.46 195.3 -21.42 195.3 C-23.51 195.18 -23.51 195.18 -24.51 194.18 C-24.6 192.4 -24.62 190.61 -24.61 188.83 C-24.61 187.75 -24.61 186.67 -24.6 185.56 C-24.59 184.42 -24.59 183.29 -24.58 182.11 C-24.57 180.97 -24.57 179.83 -24.56 178.66 C-24.55 175.83 -24.54 173 -24.51 170.18 C-23.85 170.18 -23.19 170.18 -22.51 170.18 C-22.39 169.9 -22.39 169.9 -21.73 168.52 C-20.33 165.81 -18.73 163.3 -17.08 160.74 C-15.29 157.96 -13.53 155.21 -11.92 152.33 C-11.45 151.62 -10.99 150.91 -10.51 150.18 C-9.85 150.18 -9.19 150.18 -8.51 150.18 C-8.42 149.62 -8.33 149.07 -8.23 148.5 C-7.32 145.56 -5.82 143.54 -4.01 141.05 C-0.58 136.31 -0.58 136.31 0.49 134.18 C1.15 134.18 1.81 134.18 2.49 134.18 C2.61 133.6 2.73 133.02 2.86 132.43 C3.49 130.15 4.37 128.25 5.49 126.18 C6.15 126.18 6.81 126.18 7.49 126.18 C7.77 125.43 8.06 124.69 8.36 123.93 C9.31 121.61 10.33 119.4 11.49 117.18 C12.15 117.18 12.81 117.18 13.49 117.18 C13.55 116.89 13.55 116.89 13.86 115.43 C14.49 113.15 15.37 111.25 16.49 109.18 C17.15 109.18 17.81 109.18 18.49 109.18 C18.74 108.47 19 107.77 19.27 107.04 C20.59 103.93 22.18 101.22 23.99 98.36 C24.59 97.39 25.2 96.41 25.83 95.41 C26.38 94.67 26.92 93.94 27.49 93.18 C28.15 93.18 28.81 93.18 29.49 93.18 C29.56 92.48 29.63 91.79 29.7 91.08 C30.7 87.36 32.7 84.75 34.99 81.74 C39.14 76.13 42.99 70.41 46.62 64.44 C47.52 62.99 48.5 61.58 49.49 60.18 C50.15 60.18 50.81 60.18 51.49 60.18 C51.6 59.59 51.72 59.01 51.84 58.4 C52.52 56.05 53.41 54.53 54.81 52.53 C55.28 51.86 55.75 51.18 56.24 50.48 C56.73 49.78 57.23 49.08 57.74 48.36 C58.21 47.68 58.69 46.99 59.18 46.28 C60.14 44.92 61.1 43.55 62.07 42.19 C63.02 40.84 63.96 39.48 64.89 38.11 C66.04 36.43 67.26 34.8 68.49 33.18 C69.15 33.18 69.81 33.18 70.49 33.18 C70.32 32.52 70.32 32.52 69.49 29.18 C39.46 28.85 9.43 28.52 -21.51 28.18 C-23 23.72 -22.7 19.35 -22.7 14.68 C-22.71 13.71 -22.73 12.75 -22.74 11.76 C-22.74 10.83 -22.74 9.91 -22.75 8.96 C-22.75 8.11 -22.75 7.27 -22.76 6.4 C-22.51 4.18 -22.51 4.18 -20.51 1.18 C-13.71 -0 -6.89 0.02 0 0 Z " fill="#155DFC" transform="translate(24.514892578125,-0.177001953125)"/><path d="M0 0 C0.51 0.45 1.01 0.91 1.53 1.38 C1.53 2.03 1.53 2.69 1.53 3.38 C2.03 3.54 2.03 3.54 4.53 4.38 C4.53 5.03 4.53 5.69 4.53 6.38 C5.19 6.38 5.85 6.38 6.53 6.38 C8.78 8.85 10.61 11.64 12.53 14.38 C12.97 14.95 13.41 15.53 13.86 16.12 C18.54 22.76 20.3 30.68 22.53 38.38 C22.86 39.37 23.19 40.35 23.53 41.38 C23.63 43.28 23.66 45.19 23.66 47.1 C23.67 48.22 23.67 49.33 23.67 50.48 C23.66 51.64 23.66 52.8 23.66 54 C23.66 55.17 23.66 56.34 23.67 57.55 C23.67 58.1 23.67 58.1 23.66 60.91 C23.66 61.94 23.66 62.96 23.66 64.01 C23.53 66.38 23.53 66.38 22.53 67.38 C19.49 67.5 16.48 67.55 13.44 67.56 C12.96 67.57 12.96 67.57 10.55 67.59 C8.47 67.61 6.39 67.62 4.31 67.64 C1.02 67.66 -2.26 67.68 -5.55 67.71 C-13.71 67.78 -21.87 67.84 -30.03 67.9 C-36.92 67.95 -43.81 68.01 -50.7 68.07 C-53.95 68.09 -57.19 68.11 -60.44 68.13 C-62.42 68.15 -64.4 68.17 -66.38 68.19 C-67.29 68.19 -68.2 68.19 -69.14 68.2 C-75.35 68.26 -75.35 68.26 -76.47 69.38 C-76.9 75.02 -74.75 79.33 -72.47 84.38 C-72.18 85.02 -71.89 85.67 -71.59 86.33 C-68.8 91.85 -64.01 96.6 -58.47 99.38 C-58.47 100.03 -58.47 100.69 -58.47 101.38 C-57.5 101.52 -56.53 101.66 -55.53 101.81 C-52.47 102.38 -52.47 102.38 -51.47 103.38 C-48.84 103.64 -46.23 103.85 -43.59 104 C-42.83 104.04 -42.06 104.09 -41.26 104.13 C-26.38 104.86 -26.38 104.86 -21.43 102.33 C-19.47 101.38 -19.47 101.38 -15.47 101.38 C-15.47 100.72 -15.47 100.06 -15.47 99.38 C-14.09 98.48 -12.71 97.59 -11.32 96.73 C-8.31 94.52 -5.95 91.68 -3.5 88.89 C-1.47 87.38 -1.47 87.38 1.13 87.55 C3.76 88.45 5.49 89.49 7.53 91.38 C7.53 92.03 7.53 92.69 7.53 93.38 C8.07 93.44 8.6 93.5 9.16 93.56 C12.64 94.76 14.78 96.94 17.53 99.38 C16.31 107.3 9.26 113.37 3.53 118.38 C-2.05 122.36 -7.92 125.36 -14.47 127.38 C-15.48 127.72 -16.49 128.06 -17.54 128.41 C-22.36 129.77 -27.24 129.88 -32.22 130.06 C-33.2 130.1 -34.19 130.14 -35.2 130.17 C-54.9 130.81 -69.44 126.33 -84.55 113.62 C-86.33 111.96 -87.9 110.24 -89.47 108.38 C-90.12 107.6 -90.78 106.82 -91.45 106.02 C-102.15 92.39 -105.82 77.12 -105.78 60.06 C-105.8 58.81 -105.81 57.55 -105.83 56.26 C-105.84 44.79 -103.31 35.66 -98.47 25.38 C-98.1 24.45 -97.73 23.52 -97.34 22.56 C-96.49 20.43 -95.52 18.41 -94.47 16.38 C-93.81 16.38 -93.15 16.38 -92.47 16.38 C-92.37 15.8 -92.26 15.22 -92.16 14.62 C-91.36 12.02 -90.28 10.4 -88.47 8.38 C-87.81 8.38 -87.15 8.38 -86.47 8.38 C-86.47 7.72 -86.47 7.06 -86.47 6.38 C-85.81 6.38 -85.15 6.38 -84.47 6.38 C-84.14 5.39 -83.81 4.39 -83.47 3.38 C-76.67 -2.72 -69.05 -6.69 -60.47 -9.62 C-59.55 -9.94 -58.63 -10.26 -57.68 -10.59 C-37.41 -16.63 -17.28 -11.37 0 0 Z M-66.47 22.38 C-69.47 25.86 -69.47 25.86 -69.47 28.38 C-70.13 28.38 -70.79 28.38 -71.47 28.38 C-74.53 32.76 -77.64 37.8 -77.28 43.25 C-76.47 45.38 -76.47 45.38 -74.47 46.38 C-72.79 46.47 -71.1 46.5 -69.42 46.5 C-68.89 46.51 -68.89 46.51 -66.22 46.51 C-65.07 46.51 -63.92 46.51 -62.73 46.51 C-62.14 46.51 -62.14 46.51 -59.14 46.51 C-56.63 46.51 -54.11 46.51 -51.59 46.51 C-47.78 46.5 -43.96 46.51 -40.15 46.51 C-37.7 46.51 -35.25 46.51 -32.8 46.51 C-32.23 46.51 -32.23 46.51 -29.39 46.51 C-7.62 46.45 -7.62 46.45 -3.47 44.38 C-4.58 34.27 -7.78 26.54 -15.28 19.5 C-30.78 7.14 -52.44 8.87 -66.47 22.38 Z " fill="#155DFC" transform="translate(236.46875,67.625)"/><path d="M0 0 C2.63 2.1 5.19 4.14 7.54 6.55 C7.54 7.21 7.54 7.87 7.54 8.55 C8.2 8.55 8.86 8.55 9.54 8.55 C21.57 22.6 27.1 38.04 26.88 56.29 C26.86 58.37 26.86 60.45 26.87 62.54 C26.84 68.61 26.7 73.79 24.54 79.55 C24.34 80.35 24.14 81.15 23.94 81.97 C22.19 88.95 18.84 93.85 14.54 99.55 C14.19 100.09 14.19 100.09 12.42 102.86 C10.35 105.82 8.18 108.08 5.54 110.55 C5.21 110.86 5.21 110.86 3.54 112.46 C-7.48 122.69 -20.59 128.49 -35.64 129.23 C-36.38 129.27 -37.12 129.31 -37.88 129.35 C-55.78 130.13 -72.91 126.37 -86.66 114.27 C-93.22 108.24 -93.22 108.24 -94.46 104.55 C-95.12 104.55 -95.78 104.55 -96.46 104.55 C-102.77 96.39 -106.7 88.38 -109.46 78.55 C-109.79 78.22 -110.12 77.89 -110.46 77.55 C-110.78 72.53 -110.81 67.51 -110.86 62.49 C-110.88 60.8 -110.92 59.12 -110.96 57.43 C-111.3 45.35 -109.89 36.43 -104.46 25.55 C-104.09 24.78 -103.73 24.01 -103.36 23.22 C-99.45 15.23 -94.5 8.07 -87.46 2.55 C-86.8 2.55 -86.14 2.55 -85.46 2.55 C-85.46 1.89 -85.46 1.23 -85.46 0.55 C-60.11 -18.2 -25.39 -18.67 0 0 Z M-70.46 24.55 C-70.71 24.82 -70.71 24.82 -71.99 26.21 C-77.33 32.16 -79.66 37.83 -81.46 45.55 C-81.79 46.21 -82.12 46.87 -82.46 47.55 C-82.7 50.81 -82.64 54.09 -82.64 57.36 C-82.66 58.26 -82.67 59.17 -82.68 60.1 C-82.69 64.72 -82.58 68.33 -80.46 72.55 C-80.19 73.6 -79.92 74.65 -79.64 75.73 C-76.55 85.65 -71.86 94.18 -62.65 99.45 C-52.48 104.55 -39.51 105.58 -28.44 102.79 C-26.29 101.86 -24.41 100.84 -22.46 99.55 C-21.43 98.95 -20.39 98.35 -19.33 97.73 C-13.04 92.94 -8.13 87.58 -4.46 80.55 C-3.92 79.62 -3.39 78.69 -2.84 77.73 C-0.59 72.33 -0.97 66.45 -1.01 60.7 C-1.02 58.68 -0.99 56.67 -0.96 54.66 C-0.96 47.02 -1.54 41.17 -5.46 34.55 C-5.91 33.7 -6.37 32.85 -6.84 31.98 C-12.15 23.84 -19.29 16.28 -28.99 13.93 C-44.73 10.76 -59.29 12.21 -70.46 24.55 Z " fill="#155DFC" transform="translate(459.45703125,68.453125)"/><path d="M0 0 C0.46 2.11 0.46 2.11 0.58 4.68 C0.63 5.61 0.67 6.54 0.72 7.49 C0.73 7.98 0.73 7.98 0.81 10.44 C0.84 10.92 0.84 10.92 0.97 13.37 C1.26 20.61 1.26 20.61 -1 24 C-3.06 24.03 -5.12 24.05 -7.18 24 C-16.48 24.01 -24.28 25.35 -32.01 30.66 C-34 32 -34 32 -37 33 C-38 34.75 -38 34.75 -39 37 C-39.47 37.7 -39.95 38.4 -40.44 39.12 C-45.96 49.28 -45.44 59.83 -45.44 71.06 C-45.45 72.9 -45.47 74.75 -45.48 76.59 C-45.52 81.41 -45.54 86.23 -45.55 91.05 C-45.58 98.79 -45.62 106.53 -45.67 114.27 C-45.69 116.97 -45.69 119.67 -45.7 122.38 C-45.71 124.02 -45.72 125.67 -45.73 127.31 C-45.73 128.07 -45.72 128.82 -45.72 129.59 C-45.77 134.77 -45.77 134.77 -48 137 C-50.51 137.24 -50.51 137.24 -53.63 137.23 C-54.75 137.23 -55.86 137.23 -57.01 137.22 C-58.18 137.21 -59.36 137.2 -60.56 137.19 C-61.74 137.19 -62.91 137.19 -64.12 137.19 C-72.86 137.14 -72.86 137.14 -74 136 C-74.1 134.27 -74.13 132.54 -74.13 130.81 C-74.14 129.68 -74.14 128.55 -74.15 127.39 C-74.15 126.15 -74.15 124.9 -74.15 123.62 C-74.15 122.31 -74.15 121.01 -74.16 119.67 C-74.16 116.08 -74.17 112.49 -74.17 108.91 C-74.17 105.92 -74.17 102.93 -74.18 99.94 C-74.18 92.89 -74.19 85.83 -74.19 78.78 C-74.18 71.5 -74.2 64.22 -74.21 56.93 C-74.22 50.69 -74.23 44.44 -74.23 38.2 C-74.23 34.46 -74.23 30.73 -74.24 27 C-74.25 22.84 -74.25 18.67 -74.24 14.51 C-74.25 13.27 -74.25 12.02 -74.26 10.74 C-74.26 9.61 -74.25 8.48 -74.25 7.32 C-74.25 6.34 -74.25 5.35 -74.25 4.34 C-74 2 -74 2 -72 0 C-69.68 -0.15 -69.68 -0.15 -66.81 -0.01 C-65.78 0.04 -64.76 0.08 -63.7 0.13 C-62.62 0.19 -61.55 0.25 -60.44 0.31 C-59.36 0.36 -58.28 0.41 -57.17 0.46 C-49.14 0.86 -49.14 0.86 -48 2 C-47.93 4.35 -47.92 6.71 -47.94 9.06 C-47.95 10.35 -47.96 11.64 -47.96 12.97 C-47.98 13.97 -47.99 14.97 -48 16 C-45 15 -45 15 -43.44 12.38 C-39.13 5.53 -30.7 0.96 -23 -1 C-6.14 -4.09 -6.14 -4.09 0 0 Z " fill="#155DFC" transform="translate(349,58)"/></svg>
</svg>